<?xml version="1.0" encoding="UTF-8" standalone="no"?><!DOCTYPE svg PUBLIC "-//W3C//DTD SVG 1.1//EN" >
<svg width="100%"
    height="100%"
    viewBox="0 0 2241 2241"
    version="1.1"
    xmlns="http://www.w3.org/2000/svg"
    xml:space="preserve"
    style="fill-rule:evenodd;clip-rule:evenodd;stroke-linejoin:round;stroke-miterlimit:2;"><g><g><path d="M1120.1791,1834.11987c-709.57404,-7.74216 -654.17802,-619.70279 -654.17802,-644.56835l0.79948,-400.53897c0.83327,-208.67391 167.16566,-378.18475 375.90942,-382.83776c0,229.00931 -1.63267,455.2245 -2.59838,608.40057c-0.50695,80.4092 0.07183,140.08201 3.0159,168.21736c32.27475,308.43704 249.66393,294.04862 277.0516,293.96564c26.86864,-0.08141 244.77685,14.47139 277.0516,-293.96564c2.94407,-28.13535 3.52285,-87.80816 3.0159,-168.21736c-0.96571,-153.17607 -2.59838,-379.39125 -2.59838,-608.40057c208.74377,4.65301 375.07616,174.16385 375.90942,382.83776l0.79948,400.53897c0,24.86556 55.39602,636.82619 -654.17802,644.56835Z" style="fill:#a6a6a6;"/></g></g><g><g><path d="M1674.161,1155.72221c4.391,-0.32954 8.72078,1.18512 11.94882,4.17998c3.22804,2.99486 5.06248,7.19915 5.06247,11.6025c-0,12.83349 -0,30.34298 -0,43.17647c0.00001,4.40335 -1.83443,8.60764 -5.06247,11.6025c-3.22804,2.99486 -7.55783,4.50952 -11.94882,4.17998c-28.95117,-2.17269 -87.30778,-6.55217 -114.55915,-8.5973c-8.25823,-0.61972 -14.64244,-7.50095 -14.64246,-15.7824c0,-8.03131 0,-17.95071 0,-25.98202c0.00002,-8.28145 6.38423,-15.16268 14.64246,-15.7824c27.25137,-2.04513 85.60798,-6.4246 114.55915,-8.5973Z" style="fill:#6f6f6f;"/><path d="M1655.0446,1346.40101c4.2389,1.19214 7.78952,4.09633 9.79858,8.01463c2.00906,3.9183 2.29492,8.49646 0.78888,12.63425c-4.38931,12.05953 -10.37791,28.51308 -14.76722,40.57261c-1.50602,4.13779 -4.66779,7.46112 -8.72546,9.17131c-4.05767,1.71019 -8.64438,1.65264 -12.65786,-0.15884c-26.46209,-11.94355 -79.8015,-36.01804 -104.70994,-47.26035c-7.54824,-3.40683 -11.19391,-12.0566 -8.36151,-19.83862c2.74687,-7.54696 6.1395,-16.86815 8.88637,-24.41511c2.83244,-7.78201 11.18515,-12.06472 19.15731,-9.82259c26.30739,7.39873 82.64253,23.2425 110.59084,31.10272Z" style="fill:#6f6f6f;"/><path d="M1571.86507,1519.04227c3.57553,2.57003 5.91873,6.51346 6.46649,10.8826c0.54776,4.36914 -0.74944,8.76897 -3.57986,12.14212c-8.24921,9.83102 -19.50409,23.24407 -27.7533,33.0751c-2.83041,3.37316 -6.93814,5.41468 -11.33602,5.63393c-4.39788,0.21925 -8.6883,-1.40358 -11.84017,-4.47851c-20.7813,-20.27383 -62.66999,-61.13961 -82.23116,-80.22311c-5.92782,-5.78302 -6.39524,-15.15804 -1.07204,-21.50201c5.16243,-6.15234 11.53849,-13.75104 16.70092,-19.90338c5.32323,-6.34394 14.63698,-7.51158 21.36151,-2.67803c22.19034,15.95018 69.70917,50.10622 93.28364,67.05129Z" style="fill:#6f6f6f;"/><path d="M1434.65509,1652.82291c2.48089,3.63794 3.33405,8.14498 2.35444,12.43797c-0.97961,4.293 -3.70341,7.98382 -7.51682,10.18548c-11.11413,6.41674 -26.27779,15.17149 -37.39192,21.58824c-3.8134,2.20168 -8.37165,2.71515 -12.57929,1.41702c-4.20765,-1.29814 -7.68427,-4.29051 -9.59438,-8.258c-12.59398,-26.15879 -37.97955,-78.88684 -49.8341,-103.50978c-3.59242,-7.4617 -0.8252,-16.4312 6.34673,-20.57194c6.95532,-4.01565 15.54577,-8.97536 22.50109,-12.99101c7.17196,-4.14071 16.32338,-2.05244 20.98919,4.78954c15.39682,22.57781 48.36786,70.92639 64.72505,94.91249Z" style="fill:#6f6f6f;"/><path d="M1259.96421,1731.60702c1.08703,4.26706 0.34724,8.79409 -2.04158,12.49314c-2.38882,3.69905 -6.21069,6.23569 -10.54714,7.00032c-12.63852,2.22851 -29.88201,5.269 -42.52052,7.49752c-4.33645,0.76464 -8.79541,-0.31186 -12.30532,-2.97081c-3.50991,-2.65895 -5.75341,-6.65994 -6.19137,-11.04145c-2.88763,-28.88862 -8.70821,-87.11915 -11.4263,-114.31164c-0.82372,-8.24038 4.84437,-15.72251 13,-17.16059c7.90929,-1.39462 17.678,-3.11711 25.58729,-4.51173c8.15564,-1.43804 16.04093,3.65427 18.08527,11.67942c6.74621,26.48223 21.19267,83.19178 28.35967,111.32583Z" style="fill:#6f6f6f;"/><path d="M1068.86272,1745.89207c-0.43795,4.38151 -2.68146,8.3825 -6.19137,11.04145c-3.50991,2.65895 -7.96887,3.73545 -12.30532,2.97081c-12.63852,-2.22851 -29.88201,-5.269 -42.52052,-7.49752c-4.33645,-0.76462 -8.15832,-3.30126 -10.54714,-7.00032c-2.38882,-3.69905 -3.12861,-8.22608 -2.04158,-12.49314c7.167,-28.13405 21.61346,-84.84361 28.35967,-111.32583c2.04434,-8.02515 9.92963,-13.11746 18.08527,-11.67942c7.90929,1.39462 17.678,3.11711 25.58729,4.51173c8.15563,1.43808 13.82372,8.92021 13,17.16059c-2.71809,27.19249 -8.53867,85.42303 -11.4263,114.31164Z" style="fill:#6f6f6f;"/><path d="M884.4003,1693.95506c-1.9101,3.96749 -5.38673,6.95986 -9.59438,8.258c-4.20765,1.29813 -8.76589,0.78466 -12.57929,-1.41702c-11.11413,-6.41674 -26.27779,-15.17149 -37.39192,-21.58824c-3.81341,-2.20166 -6.53721,-5.89248 -7.51682,-10.18548c-0.97961,-4.293 -0.12645,-8.80003 2.35444,-12.43797c16.35719,-23.9861 49.32823,-72.33467 64.72505,-94.91249c4.66581,-6.84197 13.81723,-8.93024 20.98919,-4.78954c6.95532,4.01565 15.54577,8.97536 22.50109,12.99101c7.17194,4.14074 9.93915,13.11024 6.34673,20.57194c-11.85455,24.62294 -37.24012,77.35099 -49.8341,103.50978Z" style="fill:#6f6f6f;"/><path d="M728.82582,1582.06038c-3.15187,3.07492 -7.44228,4.69776 -11.84017,4.47851c-4.39788,-0.21925 -8.50561,-2.26077 -11.33602,-5.63393c-8.24921,-9.83102 -19.50409,-23.24407 -27.7533,-33.0751c-2.83042,-3.37315 -4.12762,-7.77298 -3.57986,-12.14212c0.54776,-4.36914 2.89097,-8.31257 6.46649,-10.8826c23.57446,-16.94507 71.09329,-51.10111 93.28364,-67.05129c6.72452,-4.83355 16.03828,-3.66591 21.36151,2.67803c5.16243,6.15234 11.53849,13.75104 16.70092,19.90338c5.3232,6.34397 4.85578,15.71899 -1.07204,21.50201c-19.56118,19.0835 -61.44986,59.94928 -82.23116,80.22311Z" style="fill:#6f6f6f;"/><path d="M620.90387,1423.70416c-4.01348,1.81148 -8.60019,1.86904 -12.65786,0.15884c-4.05767,-1.71019 -7.21943,-5.03352 -8.72546,-9.17131c-4.38931,-12.05953 -10.37791,-28.51308 -14.76722,-40.57261c-1.50604,-4.13779 -1.22018,-8.71594 0.78888,-12.63425c2.00906,-3.9183 5.55969,-6.82249 9.79858,-8.01463c27.9483,-7.86022 84.28345,-23.704 110.59084,-31.10272c7.97216,-2.24213 16.32487,2.04058 19.15731,9.82259c2.74687,7.54696 6.1395,16.86815 8.88637,24.41511c2.8324,7.78203 -0.81327,16.43179 -8.36151,19.83862c-24.90844,11.24231 -78.24784,35.31681 -104.70994,47.26035Z" style="fill:#6f6f6f;"/><path d="M573.65142,1237.98651c-4.391,0.32954 -8.72078,-1.18512 -11.94882,-4.17998c-3.22804,-2.99486 -5.06248,-7.19915 -5.06247,-11.6025c0,-12.83349 0,-30.34298 0,-43.17647c-0.00001,-4.40335 1.83443,-8.60764 5.06247,-11.6025c3.22804,-2.99486 7.55783,-4.50952 11.94882,-4.17998c28.95117,2.17269 87.30778,6.55217 114.55915,8.5973c8.25823,0.61972 14.64244,7.50095 14.64246,15.7824c-0,8.03131 -0,17.95071 -0,25.98202c-0.00002,8.28145 -6.38423,15.16268 -14.64246,15.7824c-27.25137,2.04513 -85.60798,6.4246 -114.55915,8.5973Z" style="fill:#6f6f6f;"/></g><g><path d="M1609.22371,1241.23074c4.38317,0.44188 8.38383,2.69064 11.03972,6.20542c2.65589,3.51478 3.72667,7.97747 2.95477,12.31471c-2.17868,12.24225 -5.11745,28.7555 -7.29613,40.99775c-0.77185,4.33724 -3.31652,8.15652 -7.02195,10.53921c-3.70543,2.38269 -8.23629,3.11315 -12.50279,2.01569c-27.31847,-7.02711 -81.41083,-20.94125 -107.11846,-27.554c-8.01596,-2.06195 -13.08941,-9.95202 -11.6392,-18.10089c1.35487,-7.61316 3.01197,-16.92456 4.36684,-24.53772c1.4502,-8.14887 8.93424,-13.80416 17.16942,-12.97399c26.41064,2.66244 81.98224,8.26456 110.04778,11.09383Z" style="fill:#6f6f6f;"/><path d="M1563.63681,1404.81712c3.97104,1.90743 6.96737,5.38366 8.26832,9.59258c1.30095,4.20891 0.78877,8.76961 -1.41334,12.58512c-6.2156,10.76966 -14.59966,25.29658 -20.81526,36.06624c-2.20207,3.81553 -5.8948,6.5406 -10.18999,7.51976c-4.29519,0.97916 -8.80414,0.12379 -12.44232,-2.36036c-23.29535,-15.90616 -69.42166,-47.40139 -91.34339,-62.36963c-6.83546,-4.6673 -8.92035,-13.81313 -4.78303,-20.9818c3.86533,-6.6974 8.59289,-14.88875 12.45823,-21.58615c4.13732,-7.16867 13.09942,-9.93885 20.56028,-6.35517c23.92737,11.4931 74.27384,35.67615 99.70051,47.88941Z" style="fill:#6f6f6f;"/><path d="M1465.09053,1543.11861c3.08467,3.14519 4.71885,7.43375 4.50949,11.83416c-0.20936,4.40041 -2.24332,8.51444 -5.61266,11.35257c-9.51023,8.01092 -22.33833,18.81665 -31.84856,26.82757c-3.36931,2.83816 -7.7691,4.14358 -12.1411,3.60228c-4.372,-0.5413 -8.32056,-2.88035 -10.89595,-6.45453c-16.49021,-22.88563 -49.1419,-68.20068 -64.65976,-89.73685c-4.83865,-6.71526 -3.686,-16.02463 2.64435,-21.35698c5.91418,-4.9818 13.14762,-11.07487 19.0618,-16.05667c6.33034,-5.33236 15.70021,-4.88661 21.49576,1.02261c18.58661,18.95121 57.69538,58.82716 77.44663,78.96586Z" style="fill:#6f6f6f;"/><path d="M1325.35364,1639.61872c1.82992,4.00735 1.90678,8.59606 0.21211,12.66245c-1.69467,4.06639 -5.00751,7.24244 -9.1417,8.76425c-11.66911,4.29549 -27.40927,10.08956 -39.07838,14.38505c-4.13418,1.52185 -8.71558,1.25172 -12.64227,-0.7454c-3.92669,-1.99712 -6.84331,-5.5405 -8.04834,-9.77788c-7.71575,-27.13202 -22.99343,-80.85519 -30.25422,-106.38735c-2.26399,-7.96125 1.98856,-16.32241 9.75593,-19.18163c7.25674,-2.67126 16.13221,-5.93839 23.38895,-8.60965c7.76737,-2.85923 16.42602,0.74921 19.86413,8.27826c11.02616,24.1461 34.22672,74.9528 45.94378,100.6119Z" style="fill:#6f6f6f;"/><path d="M1161.11403,1682.79304c0.35663,4.39093 -1.133,8.73181 -4.11059,11.97855c-2.97759,3.24675 -7.17368,5.10553 -11.579,5.12927c-12.43442,0.06707 -29.20689,0.15754 -41.64131,0.22461c-4.40532,0.02378 -8.62122,-1.78963 -11.63366,-5.00406c-3.01244,-3.21444 -4.54881,-7.539 -4.23957,-11.93351c1.98016,-28.1382 5.901,-83.85367 7.7644,-110.33268c0.58104,-8.25649 7.42563,-14.6709 15.70242,-14.71554c7.73267,-0.04171 17.19023,-0.09272 24.9229,-0.13443c8.27679,-0.04465 15.19018,6.29555 15.86025,14.5453c2.14893,26.45737 6.67058,82.12731 8.95416,110.2425Z" style="fill:#6f6f6f;"/><path d="M991.98583,1667.48555c-1.15925,4.25013 -4.03747,7.82476 -7.9424,9.86413c-3.90492,2.03937 -8.48315,2.3589 -12.6335,0.88174c-11.71477,-4.16936 -27.51651,-9.7933 -39.23128,-13.96265c-4.15037,-1.47712 -7.49728,-4.61725 -9.23571,-8.66512c-1.73844,-4.04787 -1.71107,-8.63715 0.07551,-12.664c11.43959,-25.78401 34.09072,-76.83803 44.85576,-101.10167c3.35669,-7.5657 11.97591,-11.26734 19.77367,-8.49206c7.28514,2.59282 16.19533,5.76402 23.48047,8.35684c7.79776,2.77527 12.14026,11.09006 9.96229,19.07527c-6.98493,25.60901 -21.68219,79.49386 -29.1048,106.70753Z" style="fill:#6f6f6f;"/><path d="M838.16694,1595.5243c-2.53668,3.60176 -6.45978,5.98326 -10.82569,6.5717c-4.36591,0.58844 -8.77952,-0.66945 -12.17925,-3.4711c-9.59609,-7.90787 -22.54001,-18.57458 -32.13611,-26.48244c-3.39976,-2.80162 -5.47798,-6.89346 -5.7348,-11.29136c-0.25682,-4.39789 1.33101,-8.70382 4.38156,-11.88211c19.53286,-20.35059 58.20919,-60.6461 76.59028,-79.79671c5.73147,-5.97139 15.09598,-6.51819 21.48347,-1.25443c5.96758,4.91771 13.26632,10.9324 19.23391,15.85011c6.3875,5.26375 7.64052,14.56015 2.87459,21.32721c-15.28463,21.70231 -47.44559,67.36696 -63.68796,90.42914Z" style="fill:#6f6f6f;"/><path d="M718.027,1475.5032c-3.61118,2.52326 -8.11063,3.42721 -12.41614,2.49444c-4.3055,-0.93277 -8.02741,-3.61784 -10.27052,-7.4094c-6.33142,-10.70199 -14.8717,-25.13761 -21.20312,-35.8396c-2.24314,-3.79153 -2.80449,-8.34644 -1.54902,-12.56914c1.25547,-4.2227 4.21413,-7.73106 8.16436,-9.68121c25.29344,-12.48684 75.3761,-37.21159 99.1781,-48.96214c7.42177,-3.66396 16.41323,-0.99062 20.62764,6.13301c3.93736,6.65531 8.753,14.79519 12.69036,21.4505c4.21442,7.12362 2.22831,16.29141 -4.55641,21.03218c-21.75898,15.20385 -67.54286,47.19484 -90.66527,63.35137Z" style="fill:#6f6f6f;"/><path d="M645.91357,1321.7556c-4.25441,1.14342 -8.79288,0.46187 -12.5238,-1.8807c-3.73092,-2.34258 -6.31664,-6.13418 -7.13523,-10.46285c-2.31062,-12.21804 -5.42735,-28.69862 -7.73797,-40.91666c-0.81864,-4.32865 0.20393,-8.80264 2.82175,-12.34587c2.61782,-3.54322 6.59399,-5.83502 10.97214,-6.32415c28.03338,-3.13186 83.54132,-9.33314 109.9217,-12.28032c8.22574,-0.91896 15.77035,4.65526 17.30837,12.78802c1.43692,7.5981 3.19437,16.89108 4.63128,24.48919c1.53804,8.13275 -3.45001,16.07709 -11.44326,18.2254c-25.63479,6.88969 -79.57391,21.38654 -106.81498,28.70794Z" style="fill:#6f6f6f;"/></g></g><path d="M1754.23324,1701.55582c22.69139,18.7434 35.87442,46.60547 35.97707,76.0368c0.10264,29.43134 -12.88573,57.38468 -35.44583,76.2859l-73.68668,61.73587c-22.5601,18.90121 -52.35611,26.7933 -81.31461,21.53785c-28.95849,-5.25545 -54.08117,-23.11429 -68.56088,-48.73756l-130.33054,-230.63312c-21.44744,-37.95342 -12.76297,-85.80625 20.65327,-113.80286l12.80359,-10.72705c33.41619,-27.99667 82.05038,-28.16632 115.66108,-0.40348l204.24352,168.70765Zm-67.13291,29.49289l-99.69517,-80.3473c-16.03857,-12.92604 -38.97858,-12.70778 -54.7683,0.52108l-13.62589,11.41599c-15.78971,13.22888 -20.02214,35.77612 -10.10475,53.83059l61.64564,112.2258c7.7207,14.05551 21.32912,23.91572 37.09025,26.87435c15.76113,2.95863 32.01899,-1.29518 44.31138,-11.5939l35.93504,-30.10695c12.29235,-10.29877 19.3277,-25.56039 19.17508,-41.59608c-0.15261,-16.03569 -7.47715,-31.16064 -19.96329,-41.22359Z" style="fill:#545454;"/></svg>